<svg width="1144" height="676" viewBox="0 0 1144 676" fill="none" xmlns="http://www.w3.org/2000/svg">
<path d="M158.365 185.441H238.415V212.95H188.624V266.591H227.686V294.099H188.624V378H158.365V185.441ZM250.174 185.441H332.7V212.95H280.434V263.84H321.971V291.349H280.434V350.492H332.7V378H250.174V185.441ZM371.014 212.95H339.379V185.441H432.907V212.95H401.273V378H371.014V212.95ZM486.371 380.751C471.883 380.751 460.788 376.625 453.085 368.372C445.566 360.12 441.807 348.474 441.807 333.436V230.005C441.807 214.967 445.566 203.322 453.085 195.069C460.788 186.817 471.883 182.69 486.371 182.69C500.858 182.69 511.862 186.817 519.381 195.069C527.083 203.322 530.934 214.967 530.934 230.005V250.361H502.325V228.079C502.325 216.159 497.282 210.199 487.196 210.199C477.109 210.199 472.066 216.159 472.066 228.079V335.637C472.066 347.374 477.109 353.242 487.196 353.242C497.282 353.242 502.325 347.374 502.325 335.637V306.203H530.934V333.436C530.934 348.474 527.083 360.12 519.381 368.372C511.862 376.625 500.858 380.751 486.371 380.751ZM546.287 185.441H576.546V263.84H609.006V185.441H639.266V378H609.006V291.349H576.546V378H546.287V185.441ZM724.013 212.95H692.378V185.441H785.907V212.95H754.272V378H724.013V212.95ZM797.806 185.441H828.066V263.84H860.526V185.441H890.785V378H860.526V291.349H828.066V378H797.806V185.441ZM910.569 185.441H993.095V212.95H940.829V263.84H982.366V291.349H940.829V350.492H993.095V378H910.569V185.441ZM216.863 438.441H296.913V465.95H247.123V519.591H286.185V547.099H247.123V631H216.863V438.441ZM308.673 438.441H338.932V603.492H388.722V631H308.673V438.441ZM424.939 438.441H465.926L497.286 631H467.026L461.525 592.763V593.313H427.139L421.638 631H393.579L424.939 438.441ZM457.949 567.181L444.47 472.001H443.919L430.715 567.181H457.949ZM551.591 633.751C536.92 633.751 525.733 629.625 518.031 621.372C510.329 612.936 506.477 600.924 506.477 585.336V484.105C506.477 468.517 510.329 456.597 518.031 448.344C525.733 439.908 536.92 435.69 551.591 435.69C566.262 435.69 577.449 439.908 585.151 448.344C592.854 456.597 596.705 468.517 596.705 484.105V500.61H568.096V482.18C568.096 469.526 562.87 463.199 552.416 463.199C541.963 463.199 536.737 469.526 536.737 482.18V587.537C536.737 600.007 541.963 606.242 552.416 606.242C562.87 606.242 568.096 600.007 568.096 587.537V549.85H552.967V522.342H596.705V585.336C596.705 600.924 592.854 612.936 585.151 621.372C577.449 629.625 566.262 633.751 551.591 633.751ZM697.326 633.751C682.838 633.751 671.743 629.625 664.04 621.372C656.521 613.12 652.762 601.474 652.762 586.436V483.005C652.762 467.967 656.521 456.322 664.04 448.069C671.743 439.817 682.838 435.69 697.326 435.69C711.813 435.69 722.817 439.817 730.336 448.069C738.038 456.322 741.889 467.967 741.889 483.005V503.361H713.28V481.079C713.28 469.159 708.237 463.199 698.151 463.199C688.064 463.199 683.021 469.159 683.021 481.079V588.637C683.021 600.374 688.064 606.242 698.151 606.242C708.237 606.242 713.28 600.374 713.28 588.637V559.203H741.889V586.436C741.889 601.474 738.038 613.12 730.336 621.372C722.817 629.625 711.813 633.751 697.326 633.751ZM780.9 465.95H749.265V438.441H842.793V465.95H811.159V631H780.9V465.95ZM854.693 438.441H934.742V465.95H884.952V519.591H924.014V547.099H884.952V631H854.693V438.441Z" fill="#030328"/>
<mask id="path-2-outside-1_1_6980" maskUnits="userSpaceOnUse" x="144" y="168" width="863" height="480" fill="black">
<rect fill="white" x="144" y="168" width="863" height="480"/>
<path d="M158.365 185.441H238.415V212.95H188.624V266.591H227.686V294.099H188.624V378H158.365V185.441ZM250.174 185.441H332.7V212.95H280.434V263.84H321.971V291.349H280.434V350.492H332.7V378H250.174V185.441ZM371.014 212.95H339.379V185.441H432.907V212.95H401.273V378H371.014V212.95ZM486.371 380.751C471.883 380.751 460.788 376.625 453.085 368.372C445.566 360.12 441.807 348.474 441.807 333.436V230.005C441.807 214.967 445.566 203.322 453.085 195.069C460.788 186.817 471.883 182.69 486.371 182.69C500.858 182.69 511.862 186.817 519.381 195.069C527.083 203.322 530.934 214.967 530.934 230.005V250.361H502.325V228.079C502.325 216.159 497.282 210.199 487.196 210.199C477.109 210.199 472.066 216.159 472.066 228.079V335.637C472.066 347.374 477.109 353.242 487.196 353.242C497.282 353.242 502.325 347.374 502.325 335.637V306.203H530.934V333.436C530.934 348.474 527.083 360.12 519.381 368.372C511.862 376.625 500.858 380.751 486.371 380.751ZM546.287 185.441H576.546V263.84H609.006V185.441H639.266V378H609.006V291.349H576.546V378H546.287V185.441ZM724.013 212.95H692.378V185.441H785.907V212.95H754.272V378H724.013V212.95ZM797.806 185.441H828.066V263.84H860.526V185.441H890.785V378H860.526V291.349H828.066V378H797.806V185.441ZM910.569 185.441H993.095V212.95H940.829V263.84H982.366V291.349H940.829V350.492H993.095V378H910.569V185.441ZM216.863 438.441H296.913V465.95H247.123V519.591H286.185V547.099H247.123V631H216.863V438.441ZM308.673 438.441H338.932V603.492H388.722V631H308.673V438.441ZM424.939 438.441H465.926L497.286 631H467.026L461.525 592.763V593.313H427.139L421.638 631H393.579L424.939 438.441ZM457.949 567.181L444.47 472.001H443.919L430.715 567.181H457.949ZM551.591 633.751C536.92 633.751 525.733 629.625 518.031 621.372C510.329 612.936 506.477 600.924 506.477 585.336V484.105C506.477 468.517 510.329 456.597 518.031 448.344C525.733 439.908 536.92 435.69 551.591 435.69C566.262 435.69 577.449 439.908 585.151 448.344C592.854 456.597 596.705 468.517 596.705 484.105V500.61H568.096V482.18C568.096 469.526 562.87 463.199 552.416 463.199C541.963 463.199 536.737 469.526 536.737 482.18V587.537C536.737 600.007 541.963 606.242 552.416 606.242C562.87 606.242 568.096 600.007 568.096 587.537V549.85H552.967V522.342H596.705V585.336C596.705 600.924 592.854 612.936 585.151 621.372C577.449 629.625 566.262 633.751 551.591 633.751ZM697.326 633.751C682.838 633.751 671.743 629.625 664.04 621.372C656.521 613.12 652.762 601.474 652.762 586.436V483.005C652.762 467.967 656.521 456.322 664.04 448.069C671.743 439.817 682.838 435.69 697.326 435.69C711.813 435.69 722.817 439.817 730.336 448.069C738.038 456.322 741.889 467.967 741.889 483.005V503.361H713.28V481.079C713.28 469.159 708.237 463.199 698.151 463.199C688.064 463.199 683.021 469.159 683.021 481.079V588.637C683.021 600.374 688.064 606.242 698.151 606.242C708.237 606.242 713.28 600.374 713.28 588.637V559.203H741.889V586.436C741.889 601.474 738.038 613.12 730.336 621.372C722.817 629.625 711.813 633.751 697.326 633.751ZM780.9 465.95H749.265V438.441H842.793V465.95H811.159V631H780.9V465.95ZM854.693 438.441H934.742V465.95H884.952V519.591H924.014V547.099H884.952V631H854.693V438.441Z"/>
</mask>
<path d="M158.365 185.441H238.415V212.95H188.624V266.591H227.686V294.099H188.624V378H158.365V185.441ZM250.174 185.441H332.7V212.95H280.434V263.84H321.971V291.349H280.434V350.492H332.7V378H250.174V185.441ZM371.014 212.95H339.379V185.441H432.907V212.95H401.273V378H371.014V212.95ZM486.371 380.751C471.883 380.751 460.788 376.625 453.085 368.372C445.566 360.12 441.807 348.474 441.807 333.436V230.005C441.807 214.967 445.566 203.322 453.085 195.069C460.788 186.817 471.883 182.69 486.371 182.69C500.858 182.69 511.862 186.817 519.381 195.069C527.083 203.322 530.934 214.967 530.934 230.005V250.361H502.325V228.079C502.325 216.159 497.282 210.199 487.196 210.199C477.109 210.199 472.066 216.159 472.066 228.079V335.637C472.066 347.374 477.109 353.242 487.196 353.242C497.282 353.242 502.325 347.374 502.325 335.637V306.203H530.934V333.436C530.934 348.474 527.083 360.12 519.381 368.372C511.862 376.625 500.858 380.751 486.371 380.751ZM546.287 185.441H576.546V263.84H609.006V185.441H639.266V378H609.006V291.349H576.546V378H546.287V185.441ZM724.013 212.95H692.378V185.441H785.907V212.95H754.272V378H724.013V212.95ZM797.806 185.441H828.066V263.84H860.526V185.441H890.785V378H860.526V291.349H828.066V378H797.806V185.441ZM910.569 185.441H993.095V212.95H940.829V263.84H982.366V291.349H940.829V350.492H993.095V378H910.569V185.441ZM216.863 438.441H296.913V465.95H247.123V519.591H286.185V547.099H247.123V631H216.863V438.441ZM308.673 438.441H338.932V603.492H388.722V631H308.673V438.441ZM424.939 438.441H465.926L497.286 631H467.026L461.525 592.763V593.313H427.139L421.638 631H393.579L424.939 438.441ZM457.949 567.181L444.47 472.001H443.919L430.715 567.181H457.949ZM551.591 633.751C536.92 633.751 525.733 629.625 518.031 621.372C510.329 612.936 506.477 600.924 506.477 585.336V484.105C506.477 468.517 510.329 456.597 518.031 448.344C525.733 439.908 536.92 435.69 551.591 435.69C566.262 435.69 577.449 439.908 585.151 448.344C592.854 456.597 596.705 468.517 596.705 484.105V500.61H568.096V482.18C568.096 469.526 562.87 463.199 552.416 463.199C541.963 463.199 536.737 469.526 536.737 482.18V587.537C536.737 600.007 541.963 606.242 552.416 606.242C562.87 606.242 568.096 600.007 568.096 587.537V549.85H552.967V522.342H596.705V585.336C596.705 600.924 592.854 612.936 585.151 621.372C577.449 629.625 566.262 633.751 551.591 633.751ZM697.326 633.751C682.838 633.751 671.743 629.625 664.04 621.372C656.521 613.12 652.762 601.474 652.762 586.436V483.005C652.762 467.967 656.521 456.322 664.04 448.069C671.743 439.817 682.838 435.69 697.326 435.69C711.813 435.69 722.817 439.817 730.336 448.069C738.038 456.322 741.889 467.967 741.889 483.005V503.361H713.28V481.079C713.28 469.159 708.237 463.199 698.151 463.199C688.064 463.199 683.021 469.159 683.021 481.079V588.637C683.021 600.374 688.064 606.242 698.151 606.242C708.237 606.242 713.28 600.374 713.28 588.637V559.203H741.889V586.436C741.889 601.474 738.038 613.12 730.336 621.372C722.817 629.625 711.813 633.751 697.326 633.751ZM780.9 465.95H749.265V438.441H842.793V465.95H811.159V631H780.9V465.95ZM854.693 438.441H934.742V465.95H884.952V519.591H924.014V547.099H884.952V631H854.693V438.441Z" fill="#F97A99"/>
<path d="M158.365 185.441V171.551H144.475V185.441H158.365ZM238.415 185.441H252.305V171.551H238.415V185.441ZM238.415 212.95V226.84H252.305V212.95H238.415ZM188.624 212.95V199.059H174.734V212.95H188.624ZM188.624 266.591H174.734V280.481H188.624V266.591ZM227.686 266.591H241.577V252.701H227.686V266.591ZM227.686 294.099V307.99H241.577V294.099H227.686ZM188.624 294.099V280.209H174.734V294.099H188.624ZM188.624 378V391.89H202.515V378H188.624ZM158.365 378H144.475V391.89H158.365V378ZM158.365 185.441V199.332H238.415V185.441V171.551H158.365V185.441ZM238.415 185.441H224.524V212.95H238.415H252.305V185.441H238.415ZM238.415 212.95V199.059H188.624V212.95V226.84H238.415V212.95ZM188.624 212.95H174.734V266.591H188.624H202.515V212.95H188.624ZM188.624 266.591V280.481H227.686V266.591V252.701H188.624V266.591ZM227.686 266.591H213.796V294.099H227.686H241.577V266.591H227.686ZM227.686 294.099V280.209H188.624V294.099V307.99H227.686V294.099ZM188.624 294.099H174.734V378H188.624H202.515V294.099H188.624ZM188.624 378V364.11H158.365V378V391.89H188.624V378ZM158.365 378H172.255V185.441H158.365H144.475V378H158.365ZM250.174 185.441V171.551H236.284V185.441H250.174ZM332.7 185.441H346.59V171.551H332.7V185.441ZM332.7 212.95V226.84H346.59V212.95H332.7ZM280.434 212.95V199.059H266.543V212.95H280.434ZM280.434 263.84H266.543V277.731H280.434V263.84ZM321.971 263.84H335.862V249.95H321.971V263.84ZM321.971 291.349V305.239H335.862V291.349H321.971ZM280.434 291.349V277.458H266.543V291.349H280.434ZM280.434 350.492H266.543V364.382H280.434V350.492ZM332.7 350.492H346.59V336.601H332.7V350.492ZM332.7 378V391.89H346.59V378H332.7ZM250.174 378H236.284V391.89H250.174V378ZM250.174 185.441V199.332H332.7V185.441V171.551H250.174V185.441ZM332.7 185.441H318.809V212.95H332.7H346.59V185.441H332.7ZM332.7 212.95V199.059H280.434V212.95V226.84H332.7V212.95ZM280.434 212.95H266.543V263.84H280.434H294.324V212.95H280.434ZM280.434 263.84V277.731H321.971V263.84V249.95H280.434V263.84ZM321.971 263.84H308.081V291.349H321.971H335.862V263.84H321.971ZM321.971 291.349V277.458H280.434V291.349V305.239H321.971V291.349ZM280.434 291.349H266.543V350.492H280.434H294.324V291.349H280.434ZM280.434 350.492V364.382H332.7V350.492V336.601H280.434V350.492ZM332.7 350.492H318.809V378H332.7H346.59V350.492H332.7ZM332.7 378V364.11H250.174V378V391.89H332.7V378ZM250.174 378H264.065V185.441H250.174H236.284V378H250.174ZM371.014 212.95H384.904V199.059H371.014V212.95ZM339.379 212.95H325.488V226.84H339.379V212.95ZM339.379 185.441V171.551H325.488V185.441H339.379ZM432.908 185.441H446.798V171.551H432.908V185.441ZM432.908 212.95V226.84H446.798V212.95H432.908ZM401.273 212.95V199.059H387.382V212.95H401.273ZM401.273 378V391.89H415.163V378H401.273ZM371.014 378H357.123V391.89H371.014V378ZM371.014 212.95V199.059H339.379V212.95V226.84H371.014V212.95ZM339.379 212.95H353.269V185.441H339.379H325.488V212.95H339.379ZM339.379 185.441V199.332H432.908V185.441V171.551H339.379V185.441ZM432.908 185.441H419.017V212.95H432.908H446.798V185.441H432.908ZM432.908 212.95V199.059H401.273V212.95V226.84H432.908V212.95ZM401.273 212.95H387.382V378H401.273H415.163V212.95H401.273ZM401.273 378V364.11H371.014V378V391.89H401.273V378ZM371.014 378H384.904V212.95H371.014H357.123V378H371.014ZM453.085 368.372L442.818 377.727L442.874 377.789L442.931 377.85L453.085 368.372ZM453.085 195.069L442.931 185.591L442.874 185.652L442.818 185.714L453.085 195.069ZM519.381 195.069L509.113 204.424L509.169 204.486L509.226 204.547L519.381 195.069ZM530.934 250.361V264.251H544.825V250.361H530.934ZM502.325 250.361H488.435V264.251H502.325V250.361ZM502.325 306.203V292.313H488.435V306.203H502.325ZM530.934 306.203H544.825V292.313H530.934V306.203ZM519.381 368.372L509.226 358.894L509.169 358.955L509.113 359.017L519.381 368.372ZM486.371 380.751V366.86C474.578 366.86 467.619 363.586 463.24 358.894L453.085 368.372L442.931 377.85C453.956 389.663 469.188 394.641 486.371 394.641V380.751ZM453.085 368.372L463.353 359.017C458.873 354.1 455.697 346.233 455.697 333.436H441.807H427.916C427.916 350.716 432.26 366.139 442.818 377.727L453.085 368.372ZM441.807 333.436H455.697V230.005H441.807H427.916V333.436H441.807ZM441.807 230.005H455.697C455.697 217.209 458.873 209.341 463.353 204.424L453.085 195.069L442.818 185.714C432.26 197.302 427.916 212.725 427.916 230.005H441.807ZM453.085 195.069L463.24 204.547C467.619 199.855 474.578 196.581 486.371 196.581V182.69V168.8C469.188 168.8 453.956 173.778 442.931 185.591L453.085 195.069ZM486.371 182.69V196.581C498.182 196.581 504.955 199.86 509.113 204.424L519.381 195.069L529.648 185.714C518.769 173.773 503.535 168.8 486.371 168.8V182.69ZM519.381 195.069L509.226 204.547C513.82 209.47 517.044 217.29 517.044 230.005H530.934H544.825C544.825 212.644 540.345 197.174 529.535 185.591L519.381 195.069ZM530.934 230.005H517.044V250.361H530.934H544.825V230.005H530.934ZM530.934 250.361V236.471H502.325V250.361V264.251H530.934V250.361ZM502.325 250.361H516.216V228.079H502.325H488.435V250.361H502.325ZM502.325 228.079H516.216C516.216 220.492 514.66 212.212 509.147 205.696C503.258 198.737 495.044 196.308 487.196 196.308V210.199V224.089C488.38 224.089 488.792 224.267 488.724 224.24C488.571 224.18 488.224 223.977 487.939 223.641C487.697 223.355 487.819 223.346 488.011 224.027C488.214 224.746 488.435 226.033 488.435 228.079H502.325ZM487.196 210.199V196.308C479.347 196.308 471.134 198.737 465.245 205.696C459.732 212.212 458.176 220.492 458.176 228.079H472.066H485.957C485.957 226.033 486.178 224.746 486.381 224.027C486.573 223.346 486.695 223.355 486.452 223.641C486.168 223.977 485.821 224.18 485.668 224.24C485.599 224.267 486.012 224.089 487.196 224.089V210.199ZM472.066 228.079H458.176V335.637H472.066H485.957V228.079H472.066ZM472.066 335.637H458.176C458.176 343.175 459.75 351.42 465.314 357.894C471.224 364.771 479.416 367.133 487.196 367.133V353.242V339.352C485.99 339.352 485.552 339.173 485.6 339.192C485.731 339.243 486.082 339.437 486.383 339.788C486.646 340.093 486.544 340.138 486.365 339.514C486.175 338.85 485.957 337.622 485.957 335.637H472.066ZM487.196 353.242V367.133C494.976 367.133 503.168 364.771 509.078 357.894C514.641 351.42 516.216 343.175 516.216 335.637H502.325H488.435C488.435 337.622 488.217 338.85 488.026 339.514C487.848 340.138 487.746 340.093 488.008 339.788C488.309 339.437 488.66 339.243 488.792 339.192C488.839 339.173 488.402 339.352 487.196 339.352V353.242ZM502.325 335.637H516.216V306.203H502.325H488.435V335.637H502.325ZM502.325 306.203V320.093H530.934V306.203V292.313H502.325V306.203ZM530.934 306.203H517.044V333.436H530.934H544.825V306.203H530.934ZM530.934 333.436H517.044C517.044 346.151 513.82 353.972 509.226 358.894L519.381 368.372L529.535 377.85C540.345 366.267 544.825 350.797 544.825 333.436H530.934ZM519.381 368.372L509.113 359.017C504.955 363.581 498.182 366.86 486.371 366.86V380.751V394.641C503.535 394.641 518.769 389.668 529.648 377.727L519.381 368.372ZM546.287 185.441V171.551H532.397V185.441H546.287ZM576.546 185.441H590.437V171.551H576.546V185.441ZM576.546 263.84H562.656V277.731H576.546V263.84ZM609.006 263.84V277.731H622.897V263.84H609.006ZM609.006 185.441V171.551H595.116V185.441H609.006ZM639.266 185.441H653.156V171.551H639.266V185.441ZM639.266 378V391.89H653.156V378H639.266ZM609.006 378H595.116V391.89H609.006V378ZM609.006 291.349H622.897V277.458H609.006V291.349ZM576.546 291.349V277.458H562.656V291.349H576.546ZM576.546 378V391.89H590.437V378H576.546ZM546.287 378H532.397V391.89H546.287V378ZM546.287 185.441V199.332H576.546V185.441V171.551H546.287V185.441ZM576.546 185.441H562.656V263.84H576.546H590.437V185.441H576.546ZM576.546 263.84V277.731H609.006V263.84V249.95H576.546V263.84ZM609.006 263.84H622.897V185.441H609.006H595.116V263.84H609.006ZM609.006 185.441V199.332H639.266V185.441V171.551H609.006V185.441ZM639.266 185.441H625.375V378H639.266H653.156V185.441H639.266ZM639.266 378V364.11H609.006V378V391.89H639.266V378ZM609.006 378H622.897V291.349H609.006H595.116V378H609.006ZM609.006 291.349V277.458H576.546V291.349V305.239H609.006V291.349ZM576.546 291.349H562.656V378H576.546H590.437V291.349H576.546ZM576.546 378V364.11H546.287V378V391.89H576.546V378ZM546.287 378H560.178V185.441H546.287H532.397V378H546.287ZM724.013 212.95H737.903V199.059H724.013V212.95ZM692.378 212.95H678.488V226.84H692.378V212.95ZM692.378 185.441V171.551H678.488V185.441H692.378ZM785.907 185.441H799.797V171.551H785.907V185.441ZM785.907 212.95V226.84H799.797V212.95H785.907ZM754.272 212.95V199.059H740.382V212.95H754.272ZM754.272 378V391.89H768.163V378H754.272ZM724.013 378H710.123V391.89H724.013V378ZM724.013 212.95V199.059H692.378V212.95V226.84H724.013V212.95ZM692.378 212.95H706.269V185.441H692.378H678.488V212.95H692.378ZM692.378 185.441V199.332H785.907V185.441V171.551H692.378V185.441ZM785.907 185.441H772.016V212.95H785.907H799.797V185.441H785.907ZM785.907 212.95V199.059H754.272V212.95V226.84H785.907V212.95ZM754.272 212.95H740.382V378H754.272H768.163V212.95H754.272ZM754.272 378V364.11H724.013V378V391.89H754.272V378ZM724.013 378H737.903V212.95H724.013H710.123V378H724.013ZM797.806 185.441V171.551H783.916V185.441H797.806ZM828.066 185.441H841.956V171.551H828.066V185.441ZM828.066 263.84H814.175V277.731H828.066V263.84ZM860.526 263.84V277.731H874.416V263.84H860.526ZM860.526 185.441V171.551H846.635V185.441H860.526ZM890.785 185.441H904.675V171.551H890.785V185.441ZM890.785 378V391.89H904.675V378H890.785ZM860.526 378H846.635V391.89H860.526V378ZM860.526 291.349H874.416V277.458H860.526V291.349ZM828.066 291.349V277.458H814.175V291.349H828.066ZM828.066 378V391.89H841.956V378H828.066ZM797.806 378H783.916V391.89H797.806V378ZM797.806 185.441V199.332H828.066V185.441V171.551H797.806V185.441ZM828.066 185.441H814.175V263.84H828.066H841.956V185.441H828.066ZM828.066 263.84V277.731H860.526V263.84V249.95H828.066V263.84ZM860.526 263.84H874.416V185.441H860.526H846.635V263.84H860.526ZM860.526 185.441V199.332H890.785V185.441V171.551H860.526V185.441ZM890.785 185.441H876.894V378H890.785H904.675V185.441H890.785ZM890.785 378V364.11H860.526V378V391.89H890.785V378ZM860.526 378H874.416V291.349H860.526H846.635V378H860.526ZM860.526 291.349V277.458H828.066V291.349V305.239H860.526V291.349ZM828.066 291.349H814.175V378H828.066H841.956V291.349H828.066ZM828.066 378V364.11H797.806V378V391.89H828.066V378ZM797.806 378H811.697V185.441H797.806H783.916V378H797.806ZM910.569 185.441V171.551H896.679V185.441H910.569ZM993.095 185.441H1006.99V171.551H993.095V185.441ZM993.095 212.95V226.84H1006.99V212.95H993.095ZM940.829 212.95V199.059H926.938V212.95H940.829ZM940.829 263.84H926.938V277.731H940.829V263.84ZM982.366 263.84H996.257V249.95H982.366V263.84ZM982.366 291.349V305.239H996.257V291.349H982.366ZM940.829 291.349V277.458H926.938V291.349H940.829ZM940.829 350.492H926.938V364.382H940.829V350.492ZM993.095 350.492H1006.99V336.601H993.095V350.492ZM993.095 378V391.89H1006.99V378H993.095ZM910.569 378H896.679V391.89H910.569V378ZM910.569 185.441V199.332H993.095V185.441V171.551H910.569V185.441ZM993.095 185.441H979.204V212.95H993.095H1006.99V185.441H993.095ZM993.095 212.95V199.059H940.829V212.95V226.84H993.095V212.95ZM940.829 212.95H926.938V263.84H940.829H954.719V212.95H940.829ZM940.829 263.84V277.731H982.366V263.84V249.95H940.829V263.84ZM982.366 263.84H968.476V291.349H982.366H996.257V263.84H982.366ZM982.366 291.349V277.458H940.829V291.349V305.239H982.366V291.349ZM940.829 291.349H926.938V350.492H940.829H954.719V291.349H940.829ZM940.829 350.492V364.382H993.095V350.492V336.601H940.829V350.492ZM993.095 350.492H979.204V378H993.095H1006.99V350.492H993.095ZM993.095 378V364.11H910.569V378V391.89H993.095V378ZM910.569 378H924.46V185.441H910.569H896.679V378H910.569ZM216.863 438.441V424.551H202.973V438.441H216.863ZM296.913 438.441H310.803V424.551H296.913V438.441ZM296.913 465.95V479.84H310.803V465.95H296.913ZM247.123 465.95V452.059H233.232V465.95H247.123ZM247.123 519.591H233.232V533.481H247.123V519.591ZM286.185 519.591H300.075V505.701H286.185V519.591ZM286.185 547.099V560.99H300.075V547.099H286.185ZM247.123 547.099V533.209H233.232V547.099H247.123ZM247.123 631V644.89H261.013V631H247.123ZM216.863 631H202.973V644.89H216.863V631ZM216.863 438.441V452.332H296.913V438.441V424.551H216.863V438.441ZM296.913 438.441H283.022V465.95H296.913H310.803V438.441H296.913ZM296.913 465.95V452.059H247.123V465.95V479.84H296.913V465.95ZM247.123 465.95H233.232V519.591H247.123H261.013V465.95H247.123ZM247.123 519.591V533.481H286.185V519.591V505.701H247.123V519.591ZM286.185 519.591H272.294V547.099H286.185H300.075V519.591H286.185ZM286.185 547.099V533.209H247.123V547.099V560.99H286.185V547.099ZM247.123 547.099H233.232V631H247.123H261.013V547.099H247.123ZM247.123 631V617.11H216.863V631V644.89H247.123V631ZM216.863 631H230.754V438.441H216.863H202.973V631H216.863ZM308.673 438.441V424.551H294.782V438.441H308.673ZM338.932 438.441H352.822V424.551H338.932V438.441ZM338.932 603.492H325.042V617.382H338.932V603.492ZM388.722 603.492H402.613V589.601H388.722V603.492ZM388.722 631V644.89H402.613V631H388.722ZM308.673 631H294.782V644.89H308.673V631ZM308.673 438.441V452.332H338.932V438.441V424.551H308.673V438.441ZM338.932 438.441H325.042V603.492H338.932H352.822V438.441H338.932ZM338.932 603.492V617.382H388.722V603.492V589.601H338.932V603.492ZM388.722 603.492H374.832V631H388.722H402.613V603.492H388.722ZM388.722 631V617.11H308.673V631V644.89H388.722V631ZM308.673 631H322.563V438.441H308.673H294.782V631H308.673ZM424.939 438.441V424.551H413.127L411.229 436.208L424.939 438.441ZM465.926 438.441L479.636 436.208L477.737 424.551H465.926V438.441ZM497.286 631V644.89H513.621L510.996 628.767L497.286 631ZM467.026 631L453.278 632.978L454.992 644.89H467.026V631ZM461.525 592.763L475.274 590.785L447.634 592.763H461.525ZM461.525 593.313V607.204H475.415V593.313H461.525ZM427.139 593.313V579.423H415.129L413.395 591.307L427.139 593.313ZM421.638 631V644.89H433.647L435.382 633.007L421.638 631ZM393.579 631L379.869 628.767L377.243 644.89H393.579V631ZM457.949 567.181V581.071H473.945L471.702 565.233L457.949 567.181ZM444.47 472.001L458.223 470.054L456.531 458.111H444.47V472.001ZM443.919 472.001V458.111H431.823L430.161 470.093L443.919 472.001ZM430.715 567.181L416.957 565.272L414.765 581.071H430.715V567.181ZM424.939 438.441V452.332H465.926V438.441V424.551H424.939V438.441ZM465.926 438.441L452.216 440.674L483.576 633.233L497.286 631L510.996 628.767L479.636 436.208L465.926 438.441ZM497.286 631V617.11H467.026V631V644.89H497.286V631ZM467.026 631L480.775 629.022L475.274 590.785L461.525 592.763L447.776 594.742L453.278 632.978L467.026 631ZM461.525 592.763H447.634V593.313H461.525H475.415V592.763H461.525ZM461.525 593.313V579.423H427.139V593.313V607.204H461.525V593.313ZM427.139 593.313L413.395 591.307L407.893 628.993L421.638 631L435.382 633.007L440.884 595.32L427.139 593.313ZM421.638 631V617.11H393.579V631V644.89H421.638V631ZM393.579 631L407.289 633.233L438.648 440.674L424.939 438.441L411.229 436.208L379.869 628.767L393.579 631ZM457.949 567.181L471.702 565.233L458.223 470.054L444.47 472.001L430.716 473.949L444.196 569.128L457.949 567.181ZM444.47 472.001V458.111H443.919V472.001V485.892H444.47V472.001ZM443.919 472.001L430.161 470.093L416.957 565.272L430.715 567.181L444.474 569.089L457.678 473.91L443.919 472.001ZM430.715 567.181V581.071H457.949V567.181V553.29H430.715V567.181ZM518.031 621.372L507.773 630.738L507.824 630.794L507.876 630.85L518.031 621.372ZM518.031 448.344L528.186 457.822L528.237 457.766L528.289 457.71L518.031 448.344ZM585.151 448.344L574.894 457.71L574.945 457.766L574.997 457.822L585.151 448.344ZM596.705 500.61V514.501H610.595V500.61H596.705ZM568.096 500.61H554.206V514.501H568.096V500.61ZM568.096 549.85H581.987V535.96H568.096V549.85ZM552.967 549.85H539.076V563.741H552.967V549.85ZM552.967 522.342V508.451H539.076V522.342H552.967ZM596.705 522.342H610.595V508.451H596.705V522.342ZM585.151 621.372L595.306 630.85L595.358 630.794L595.409 630.738L585.151 621.372ZM551.591 633.751V619.86C539.554 619.86 532.533 616.552 528.186 611.894L518.031 621.372L507.876 630.85C518.934 642.697 534.286 647.641 551.591 647.641V633.751ZM518.031 621.372L528.289 612.006C523.661 606.938 520.368 598.736 520.368 585.336H506.477H492.587C492.587 603.113 496.996 618.934 507.773 630.738L518.031 621.372ZM506.477 585.336H520.368V484.105H506.477H492.587V585.336H506.477ZM506.477 484.105H520.368C520.368 470.682 523.67 462.66 528.186 457.822L518.031 448.344L507.876 438.867C496.987 450.534 492.587 466.352 492.587 484.105H506.477ZM518.031 448.344L528.289 457.71C532.658 452.925 539.645 449.581 551.591 449.581V435.69V421.8C534.196 421.8 518.809 426.892 507.773 438.978L518.031 448.344ZM551.591 435.69V449.581C563.538 449.581 570.525 452.925 574.894 457.71L585.151 448.344L595.409 438.978C584.374 426.892 568.987 421.8 551.591 421.8V435.69ZM585.151 448.344L574.997 457.822C579.512 462.66 582.815 470.682 582.815 484.105H596.705H610.595C610.595 466.352 606.196 450.534 595.306 438.867L585.151 448.344ZM596.705 484.105H582.815V500.61H596.705H610.595V484.105H596.705ZM596.705 500.61V486.72H568.096V500.61V514.501H596.705V500.61ZM568.096 500.61H581.987V482.18H568.096H554.206V500.61H568.096ZM568.096 482.18H581.987C581.987 474.288 580.411 465.787 574.885 459.097C568.939 451.9 560.557 449.308 552.416 449.308V463.199V477.089C553.656 477.089 554.111 477.279 554.079 477.266C553.962 477.219 553.679 477.047 553.467 476.79C553.302 476.591 553.489 476.71 553.724 477.563C553.968 478.449 554.206 479.927 554.206 482.18H568.096ZM552.416 463.199V449.308C544.275 449.308 535.893 451.9 529.948 459.097C524.422 465.787 522.846 474.288 522.846 482.18H536.737H550.627C550.627 479.927 550.865 478.449 551.109 477.563C551.344 476.71 551.531 476.591 551.366 476.79C551.154 477.047 550.871 477.219 550.754 477.266C550.722 477.279 551.177 477.089 552.416 477.089V463.199ZM536.737 482.18H522.846V587.537H536.737H550.627V482.18H536.737ZM536.737 587.537H522.846C522.846 595.374 524.438 603.84 530.011 610.489C535.979 617.608 544.342 620.133 552.416 620.133V606.242V592.352C551.155 592.352 550.677 592.161 550.689 592.166C550.786 592.205 551.074 592.371 551.302 592.643C551.486 592.863 551.318 592.78 551.095 591.983C550.862 591.149 550.627 589.729 550.627 587.537H536.737ZM552.416 606.242V620.133C560.491 620.133 568.854 617.608 574.821 610.489C580.395 603.84 581.987 595.374 581.987 587.537H568.096H554.206C554.206 589.729 553.971 591.149 553.738 591.983C553.515 592.78 553.347 592.863 553.531 592.643C553.759 592.371 554.046 592.205 554.144 592.166C554.156 592.161 553.678 592.352 552.416 592.352V606.242ZM568.096 587.537H581.987V549.85H568.096H554.206V587.537H568.096ZM568.096 549.85V535.96H552.967V549.85V563.741H568.096V549.85ZM552.967 549.85H566.857V522.342H552.967H539.076V549.85H552.967ZM552.967 522.342V536.232H596.705V522.342V508.451H552.967V522.342ZM596.705 522.342H582.815V585.336H596.705H610.595V522.342H596.705ZM596.705 585.336H582.815C582.815 598.736 579.521 606.938 574.894 612.006L585.151 621.372L595.409 630.738C606.187 618.934 610.595 603.113 610.595 585.336H596.705ZM585.151 621.372L574.997 611.894C570.65 616.552 563.628 619.86 551.591 619.86V633.751V647.641C568.897 647.641 584.248 642.697 595.306 630.85L585.151 621.372ZM664.04 621.372L653.773 630.727L653.829 630.789L653.886 630.85L664.04 621.372ZM664.04 448.069L653.886 438.591L653.829 438.652L653.773 438.714L664.04 448.069ZM730.336 448.069L720.068 457.424L720.124 457.486L720.181 457.547L730.336 448.069ZM741.889 503.361V517.251H755.78V503.361H741.889ZM713.28 503.361H699.39V517.251H713.28V503.361ZM713.28 559.203V545.313H699.39V559.203H713.28ZM741.889 559.203H755.78V545.313H741.889V559.203ZM730.336 621.372L720.181 611.894L720.124 611.955L720.068 612.017L730.336 621.372ZM697.326 633.751V619.86C685.533 619.86 678.574 616.586 674.195 611.894L664.04 621.372L653.886 630.85C664.911 642.663 680.143 647.641 697.326 647.641V633.751ZM664.04 621.372L674.308 612.017C669.828 607.1 666.652 599.233 666.652 586.436H652.762H638.872C638.872 603.716 643.215 619.139 653.773 630.727L664.04 621.372ZM652.762 586.436H666.652V483.005H652.762H638.872V586.436H652.762ZM652.762 483.005H666.652C666.652 470.209 669.828 462.341 674.308 457.424L664.04 448.069L653.773 438.714C643.215 450.302 638.872 465.725 638.872 483.005H652.762ZM664.04 448.069L674.195 457.547C678.574 452.855 685.533 449.581 697.326 449.581V435.69V421.8C680.143 421.8 664.911 426.778 653.886 438.591L664.04 448.069ZM697.326 435.69V449.581C709.137 449.581 715.91 452.86 720.068 457.424L730.336 448.069L740.603 438.714C729.724 426.773 714.49 421.8 697.326 421.8V435.69ZM730.336 448.069L720.181 457.547C724.776 462.47 727.999 470.29 727.999 483.005H741.889H755.78C755.78 465.644 751.3 450.174 740.49 438.591L730.336 448.069ZM741.889 483.005H727.999V503.361H741.889H755.78V483.005H741.889ZM741.889 503.361V489.471H713.28V503.361V517.251H741.889V503.361ZM713.28 503.361H727.171V481.079H713.28H699.39V503.361H713.28ZM713.28 481.079H727.171C727.171 473.492 725.615 465.212 720.102 458.696C714.213 451.737 705.999 449.308 698.151 449.308V463.199V477.089C699.335 477.089 699.747 477.267 699.679 477.24C699.526 477.18 699.179 476.977 698.894 476.641C698.652 476.355 698.774 476.346 698.966 477.027C699.169 477.746 699.39 479.033 699.39 481.079H713.28ZM698.151 463.199V449.308C690.302 449.308 682.089 451.737 676.2 458.696C670.687 465.212 669.131 473.492 669.131 481.079H683.021H696.912C696.912 479.033 697.133 477.746 697.336 477.027C697.528 476.346 697.65 476.355 697.407 476.641C697.123 476.977 696.776 477.18 696.623 477.24C696.554 477.267 696.967 477.089 698.151 477.089V463.199ZM683.021 481.079H669.131V588.637H683.021H696.912V481.079H683.021ZM683.021 588.637H669.131C669.131 596.175 670.705 604.42 676.269 610.894C682.179 617.771 690.371 620.133 698.151 620.133V606.242V592.352C696.945 592.352 696.507 592.173 696.555 592.192C696.686 592.243 697.037 592.437 697.338 592.788C697.601 593.093 697.499 593.138 697.32 592.514C697.13 591.85 696.912 590.622 696.912 588.637H683.021ZM698.151 606.242V620.133C705.931 620.133 714.123 617.771 720.033 610.894C725.596 604.42 727.171 596.175 727.171 588.637H713.28H699.39C699.39 590.622 699.172 591.85 698.981 592.514C698.803 593.138 698.701 593.093 698.963 592.788C699.264 592.437 699.615 592.243 699.747 592.192C699.794 592.173 699.357 592.352 698.151 592.352V606.242ZM713.28 588.637H727.171V559.203H713.28H699.39V588.637H713.28ZM713.28 559.203V573.093H741.889V559.203V545.313H713.28V559.203ZM741.889 559.203H727.999V586.436H741.889H755.78V559.203H741.889ZM741.889 586.436H727.999C727.999 599.151 724.776 606.972 720.181 611.894L730.336 621.372L740.49 630.85C751.3 619.267 755.78 603.797 755.78 586.436H741.889ZM730.336 621.372L720.068 612.017C715.91 616.581 709.137 619.86 697.326 619.86V633.751V647.641C714.49 647.641 729.724 642.668 740.603 630.727L730.336 621.372ZM780.9 465.95H794.79V452.059H780.9V465.95ZM749.265 465.95H735.374V479.84H749.265V465.95ZM749.265 438.441V424.551H735.374V438.441H749.265ZM842.793 438.441H856.684V424.551H842.793V438.441ZM842.793 465.95V479.84H856.684V465.95H842.793ZM811.159 465.95V452.059H797.268V465.95H811.159ZM811.159 631V644.89H825.049V631H811.159ZM780.9 631H767.009V644.89H780.9V631ZM780.9 465.95V452.059H749.265V465.95V479.84H780.9V465.95ZM749.265 465.95H763.155V438.441H749.265H735.374V465.95H749.265ZM749.265 438.441V452.332H842.793V438.441V424.551H749.265V438.441ZM842.793 438.441H828.903V465.95H842.793H856.684V438.441H842.793ZM842.793 465.95V452.059H811.159V465.95V479.84H842.793V465.95ZM811.159 465.95H797.268V631H811.159H825.049V465.95H811.159ZM811.159 631V617.11H780.9V631V644.89H811.159V631ZM780.9 631H794.79V465.95H780.9H767.009V631H780.9ZM854.693 438.441V424.551H840.803V438.441H854.693ZM934.742 438.441H948.633V424.551H934.742V438.441ZM934.742 465.95V479.84H948.633V465.95H934.742ZM884.952 465.95V452.059H871.062V465.95H884.952ZM884.952 519.591H871.062V533.481H884.952V519.591ZM924.014 519.591H937.905V505.701H924.014V519.591ZM924.014 547.099V560.99H937.905V547.099H924.014ZM884.952 547.099V533.209H871.062V547.099H884.952ZM884.952 631V644.89H898.843V631H884.952ZM854.693 631H840.803V644.89H854.693V631ZM854.693 438.441V452.332H934.742V438.441V424.551H854.693V438.441ZM934.742 438.441H920.852V465.95H934.742H948.633V438.441H934.742ZM934.742 465.95V452.059H884.952V465.95V479.84H934.742V465.95ZM884.952 465.95H871.062V519.591H884.952H898.843V465.95H884.952ZM884.952 519.591V533.481H924.014V519.591V505.701H884.952V519.591ZM924.014 519.591H910.124V547.099H924.014H937.905V519.591H924.014ZM924.014 547.099V533.209H884.952V547.099V560.99H924.014V547.099ZM884.952 547.099H871.062V631H884.952H898.843V547.099H884.952ZM884.952 631V617.11H854.693V631V644.89H884.952V631ZM854.693 631H868.583V438.441H854.693H840.803V631H854.693Z" fill="white" mask="url(#path-2-outside-1_1_6980)"/>
<mask id="path-4-outside-2_1_6980" maskUnits="userSpaceOnUse" x="151" y="175" width="850" height="466" fill="black">
<rect fill="white" x="151" y="175" width="850" height="466"/>
<path d="M158.365 185.441H238.415V212.95H188.624V266.591H227.686V294.099H188.624V378H158.365V185.441ZM250.174 185.441H332.7V212.95H280.434V263.84H321.971V291.349H280.434V350.492H332.7V378H250.174V185.441ZM371.014 212.95H339.379V185.441H432.907V212.95H401.273V378H371.014V212.95ZM486.371 380.751C471.883 380.751 460.788 376.625 453.085 368.372C445.566 360.12 441.807 348.474 441.807 333.436V230.005C441.807 214.967 445.566 203.322 453.085 195.069C460.788 186.817 471.883 182.69 486.371 182.69C500.858 182.69 511.862 186.817 519.381 195.069C527.083 203.322 530.934 214.967 530.934 230.005V250.361H502.325V228.079C502.325 216.159 497.282 210.199 487.196 210.199C477.109 210.199 472.066 216.159 472.066 228.079V335.637C472.066 347.374 477.109 353.242 487.196 353.242C497.282 353.242 502.325 347.374 502.325 335.637V306.203H530.934V333.436C530.934 348.474 527.083 360.12 519.381 368.372C511.862 376.625 500.858 380.751 486.371 380.751ZM546.287 185.441H576.546V263.84H609.006V185.441H639.266V378H609.006V291.349H576.546V378H546.287V185.441ZM724.013 212.95H692.378V185.441H785.907V212.95H754.272V378H724.013V212.95ZM797.806 185.441H828.066V263.84H860.526V185.441H890.785V378H860.526V291.349H828.066V378H797.806V185.441ZM910.569 185.441H993.095V212.95H940.829V263.84H982.366V291.349H940.829V350.492H993.095V378H910.569V185.441ZM216.863 438.441H296.913V465.95H247.123V519.591H286.185V547.099H247.123V631H216.863V438.441ZM308.673 438.441H338.932V603.492H388.722V631H308.673V438.441ZM424.939 438.441H465.926L497.286 631H467.026L461.525 592.763V593.313H427.139L421.638 631H393.579L424.939 438.441ZM457.949 567.181L444.47 472.001H443.919L430.715 567.181H457.949ZM551.591 633.751C536.92 633.751 525.733 629.625 518.031 621.372C510.329 612.936 506.477 600.924 506.477 585.336V484.105C506.477 468.517 510.329 456.597 518.031 448.344C525.733 439.908 536.92 435.69 551.591 435.69C566.262 435.69 577.449 439.908 585.151 448.344C592.854 456.597 596.705 468.517 596.705 484.105V500.61H568.096V482.18C568.096 469.526 562.87 463.199 552.416 463.199C541.963 463.199 536.737 469.526 536.737 482.18V587.537C536.737 600.007 541.963 606.242 552.416 606.242C562.87 606.242 568.096 600.007 568.096 587.537V549.85H552.967V522.342H596.705V585.336C596.705 600.924 592.854 612.936 585.151 621.372C577.449 629.625 566.262 633.751 551.591 633.751ZM697.326 633.751C682.838 633.751 671.743 629.625 664.04 621.372C656.521 613.12 652.762 601.474 652.762 586.436V483.005C652.762 467.967 656.521 456.322 664.04 448.069C671.743 439.817 682.838 435.69 697.326 435.69C711.813 435.69 722.817 439.817 730.336 448.069C738.038 456.322 741.889 467.967 741.889 483.005V503.361H713.28V481.079C713.28 469.159 708.237 463.199 698.151 463.199C688.064 463.199 683.021 469.159 683.021 481.079V588.637C683.021 600.374 688.064 606.242 698.151 606.242C708.237 606.242 713.28 600.374 713.28 588.637V559.203H741.889V586.436C741.889 601.474 738.038 613.12 730.336 621.372C722.817 629.625 711.813 633.751 697.326 633.751ZM780.9 465.95H749.265V438.441H842.793V465.95H811.159V631H780.9V465.95ZM854.693 438.441H934.742V465.95H884.952V519.591H924.014V547.099H884.952V631H854.693V438.441Z"/>
</mask>
<path d="M158.365 185.441H238.415V212.95H188.624V266.591H227.686V294.099H188.624V378H158.365V185.441ZM250.174 185.441H332.7V212.95H280.434V263.84H321.971V291.349H280.434V350.492H332.7V378H250.174V185.441ZM371.014 212.95H339.379V185.441H432.907V212.95H401.273V378H371.014V212.95ZM486.371 380.751C471.883 380.751 460.788 376.625 453.085 368.372C445.566 360.12 441.807 348.474 441.807 333.436V230.005C441.807 214.967 445.566 203.322 453.085 195.069C460.788 186.817 471.883 182.69 486.371 182.69C500.858 182.69 511.862 186.817 519.381 195.069C527.083 203.322 530.934 214.967 530.934 230.005V250.361H502.325V228.079C502.325 216.159 497.282 210.199 487.196 210.199C477.109 210.199 472.066 216.159 472.066 228.079V335.637C472.066 347.374 477.109 353.242 487.196 353.242C497.282 353.242 502.325 347.374 502.325 335.637V306.203H530.934V333.436C530.934 348.474 527.083 360.12 519.381 368.372C511.862 376.625 500.858 380.751 486.371 380.751ZM546.287 185.441H576.546V263.84H609.006V185.441H639.266V378H609.006V291.349H576.546V378H546.287V185.441ZM724.013 212.95H692.378V185.441H785.907V212.95H754.272V378H724.013V212.95ZM797.806 185.441H828.066V263.84H860.526V185.441H890.785V378H860.526V291.349H828.066V378H797.806V185.441ZM910.569 185.441H993.095V212.95H940.829V263.84H982.366V291.349H940.829V350.492H993.095V378H910.569V185.441ZM216.863 438.441H296.913V465.95H247.123V519.591H286.185V547.099H247.123V631H216.863V438.441ZM308.673 438.441H338.932V603.492H388.722V631H308.673V438.441ZM424.939 438.441H465.926L497.286 631H467.026L461.525 592.763V593.313H427.139L421.638 631H393.579L424.939 438.441ZM457.949 567.181L444.47 472.001H443.919L430.715 567.181H457.949ZM551.591 633.751C536.92 633.751 525.733 629.625 518.031 621.372C510.329 612.936 506.477 600.924 506.477 585.336V484.105C506.477 468.517 510.329 456.597 518.031 448.344C525.733 439.908 536.92 435.69 551.591 435.69C566.262 435.69 577.449 439.908 585.151 448.344C592.854 456.597 596.705 468.517 596.705 484.105V500.61H568.096V482.18C568.096 469.526 562.87 463.199 552.416 463.199C541.963 463.199 536.737 469.526 536.737 482.18V587.537C536.737 600.007 541.963 606.242 552.416 606.242C562.87 606.242 568.096 600.007 568.096 587.537V549.85H552.967V522.342H596.705V585.336C596.705 600.924 592.854 612.936 585.151 621.372C577.449 629.625 566.262 633.751 551.591 633.751ZM697.326 633.751C682.838 633.751 671.743 629.625 664.04 621.372C656.521 613.12 652.762 601.474 652.762 586.436V483.005C652.762 467.967 656.521 456.322 664.04 448.069C671.743 439.817 682.838 435.69 697.326 435.69C711.813 435.69 722.817 439.817 730.336 448.069C738.038 456.322 741.889 467.967 741.889 483.005V503.361H713.28V481.079C713.28 469.159 708.237 463.199 698.151 463.199C688.064 463.199 683.021 469.159 683.021 481.079V588.637C683.021 600.374 688.064 606.242 698.151 606.242C708.237 606.242 713.28 600.374 713.28 588.637V559.203H741.889V586.436C741.889 601.474 738.038 613.12 730.336 621.372C722.817 629.625 711.813 633.751 697.326 633.751ZM780.9 465.95H749.265V438.441H842.793V465.95H811.159V631H780.9V465.95ZM854.693 438.441H934.742V465.95H884.952V519.591H924.014V547.099H884.952V631H854.693V438.441Z" fill="#F97A99"/>
<path d="M158.365 185.441V178.496H151.42V185.441H158.365ZM238.415 185.441H245.36V178.496H238.415V185.441ZM238.415 212.95V219.895H245.36V212.95H238.415ZM188.624 212.95V206.004H181.679V212.95H188.624ZM188.624 266.591H181.679V273.536H188.624V266.591ZM227.686 266.591H234.631V259.646H227.686V266.591ZM227.686 294.099V301.045H234.631V294.099H227.686ZM188.624 294.099V287.154H181.679V294.099H188.624ZM188.624 378V384.945H195.57V378H188.624ZM158.365 378H151.42V384.945H158.365V378ZM158.365 185.441V192.386H238.415V185.441V178.496H158.365V185.441ZM238.415 185.441H231.469V212.95H238.415H245.36V185.441H238.415ZM238.415 212.95V206.004H188.624V212.95V219.895H238.415V212.95ZM188.624 212.95H181.679V266.591H188.624H195.57V212.95H188.624ZM188.624 266.591V273.536H227.686V266.591V259.646H188.624V266.591ZM227.686 266.591H220.741V294.099H227.686H234.631V266.591H227.686ZM227.686 294.099V287.154H188.624V294.099V301.045H227.686V294.099ZM188.624 294.099H181.679V378H188.624H195.57V294.099H188.624ZM188.624 378V371.055H158.365V378V384.945H188.624V378ZM158.365 378H165.31V185.441H158.365H151.42V378H158.365ZM250.174 185.441V178.496H243.229V185.441H250.174ZM332.7 185.441H339.645V178.496H332.7V185.441ZM332.7 212.95V219.895H339.645V212.95H332.7ZM280.434 212.95V206.004H273.488V212.95H280.434ZM280.434 263.84H273.488V270.785H280.434V263.84ZM321.971 263.84H328.916V256.895H321.971V263.84ZM321.971 291.349V298.294H328.916V291.349H321.971ZM280.434 291.349V284.403H273.488V291.349H280.434ZM280.434 350.492H273.488V357.437H280.434V350.492ZM332.7 350.492H339.645V343.546H332.7V350.492ZM332.7 378V384.945H339.645V378H332.7ZM250.174 378H243.229V384.945H250.174V378ZM250.174 185.441V192.386H332.7V185.441V178.496H250.174V185.441ZM332.7 185.441H325.754V212.95H332.7H339.645V185.441H332.7ZM332.7 212.95V206.004H280.434V212.95V219.895H332.7V212.95ZM280.434 212.95H273.488V263.84H280.434H287.379V212.95H280.434ZM280.434 263.84V270.785H321.971V263.84V256.895H280.434V263.84ZM321.971 263.84H315.026V291.349H321.971H328.916V263.84H321.971ZM321.971 291.349V284.403H280.434V291.349V298.294H321.971V291.349ZM280.434 291.349H273.488V350.492H280.434H287.379V291.349H280.434ZM280.434 350.492V357.437H332.7V350.492V343.546H280.434V350.492ZM332.7 350.492H325.754V378H332.7H339.645V350.492H332.7ZM332.7 378V371.055H250.174V378V384.945H332.7V378ZM250.174 378H257.12V185.441H250.174H243.229V378H250.174ZM371.014 212.95H377.959V206.004H371.014V212.95ZM339.379 212.95H332.434V219.895H339.379V212.95ZM339.379 185.441V178.496H332.434V185.441H339.379ZM432.908 185.441H439.853V178.496H432.908V185.441ZM432.908 212.95V219.895H439.853V212.95H432.908ZM401.273 212.95V206.004H394.328V212.95H401.273ZM401.273 378V384.945H408.218V378H401.273ZM371.014 378H364.068V384.945H371.014V378ZM371.014 212.95V206.004H339.379V212.95V219.895H371.014V212.95ZM339.379 212.95H346.324V185.441H339.379H332.434V212.95H339.379ZM339.379 185.441V192.386H432.908V185.441V178.496H339.379V185.441ZM432.908 185.441H425.962V212.95H432.908H439.853V185.441H432.908ZM432.908 212.95V206.004H401.273V212.95V219.895H432.908V212.95ZM401.273 212.95H394.328V378H401.273H408.218V212.95H401.273ZM401.273 378V371.055H371.014V378V384.945H401.273V378ZM371.014 378H377.959V212.95H371.014H364.068V378H371.014ZM453.085 368.372L447.951 373.05L447.98 373.08L448.008 373.111L453.085 368.372ZM453.085 195.069L448.008 190.33L447.98 190.361L447.951 190.392L453.085 195.069ZM519.381 195.069L514.247 199.747L514.275 199.777L514.303 199.808L519.381 195.069ZM530.934 250.361V257.306H537.879V250.361H530.934ZM502.325 250.361H495.38V257.306H502.325V250.361ZM502.325 306.203V299.258H495.38V306.203H502.325ZM530.934 306.203H537.879V299.258H530.934V306.203ZM519.381 368.372L514.303 363.633L514.275 363.664L514.247 363.695L519.381 368.372ZM486.371 380.751V373.806C473.23 373.806 464.203 370.106 458.163 363.633L453.085 368.372L448.008 373.111C457.372 383.144 470.535 387.696 486.371 387.696V380.751ZM453.085 368.372L458.219 363.695C452.22 357.11 448.752 347.353 448.752 333.436H441.807H434.862C434.862 349.595 438.913 363.129 447.951 373.05L453.085 368.372ZM441.807 333.436H448.752V230.005H441.807H434.862V333.436H441.807ZM441.807 230.005H448.752C448.752 216.088 452.22 206.332 458.219 199.747L453.085 195.069L447.951 190.392C438.913 200.312 434.862 213.846 434.862 230.005H441.807ZM453.085 195.069L458.163 199.808C464.203 193.336 473.23 189.636 486.371 189.636V182.69V175.745C470.535 175.745 457.372 180.298 448.008 190.33L453.085 195.069ZM486.371 182.69V189.636C499.52 189.636 508.408 193.338 514.247 199.747L519.381 195.069L524.514 190.392C515.315 180.295 502.197 175.745 486.371 175.745V182.69ZM519.381 195.069L514.303 199.808C520.452 206.396 523.989 216.128 523.989 230.005H530.934H537.879C537.879 213.805 533.714 200.248 524.458 190.33L519.381 195.069ZM530.934 230.005H523.989V250.361H530.934H537.879V230.005H530.934ZM530.934 250.361V243.416H502.325V250.361V257.306H530.934V250.361ZM502.325 250.361H509.271V228.079H502.325H495.38V250.361H502.325ZM502.325 228.079H509.271C509.271 221.305 507.862 214.93 503.845 210.183C499.64 205.213 493.642 203.254 487.196 203.254V210.199V217.144C490.836 217.144 492.403 218.165 493.241 219.155C494.267 220.368 495.38 222.933 495.38 228.079H502.325ZM487.196 210.199V203.254C480.75 203.254 474.752 205.213 470.547 210.183C466.529 214.93 465.121 221.305 465.121 228.079H472.066H479.011C479.011 222.933 480.124 220.368 481.15 219.155C481.988 218.165 483.555 217.144 487.196 217.144V210.199ZM472.066 228.079H465.121V335.637H472.066H479.011V228.079H472.066ZM472.066 335.637H465.121C465.121 342.34 466.539 348.664 470.581 353.368C474.797 358.273 480.784 360.188 487.196 360.188V353.242V346.297C483.521 346.297 481.943 345.277 481.116 344.314C480.115 343.15 479.011 340.671 479.011 335.637H472.066ZM487.196 353.242V360.188C493.607 360.188 499.595 358.273 503.81 353.368C507.853 348.664 509.271 342.34 509.271 335.637H502.325H495.38C495.38 340.671 494.276 343.15 493.276 344.314C492.448 345.277 490.87 346.297 487.196 346.297V353.242ZM502.325 335.637H509.271V306.203H502.325H495.38V335.637H502.325ZM502.325 306.203V313.148H530.934V306.203V299.258H502.325V306.203ZM530.934 306.203H523.989V333.436H530.934H537.879V306.203H530.934ZM530.934 333.436H523.989C523.989 347.313 520.452 357.046 514.303 363.633L519.381 368.372L524.458 373.111C533.714 363.193 537.879 349.636 537.879 333.436H530.934ZM519.381 368.372L514.247 363.695C508.408 370.103 499.52 373.806 486.371 373.806V380.751V387.696C502.197 387.696 515.315 383.146 524.514 373.05L519.381 368.372ZM546.287 185.441V178.496H539.342V185.441H546.287ZM576.546 185.441H583.492V178.496H576.546V185.441ZM576.546 263.84H569.601V270.785H576.546V263.84ZM609.006 263.84V270.785H615.952V263.84H609.006ZM609.006 185.441V178.496H602.061V185.441H609.006ZM639.266 185.441H646.211V178.496H639.266V185.441ZM639.266 378V384.945H646.211V378H639.266ZM609.006 378H602.061V384.945H609.006V378ZM609.006 291.349H615.952V284.403H609.006V291.349ZM576.546 291.349V284.403H569.601V291.349H576.546ZM576.546 378V384.945H583.492V378H576.546ZM546.287 378H539.342V384.945H546.287V378ZM546.287 185.441V192.386H576.546V185.441V178.496H546.287V185.441ZM576.546 185.441H569.601V263.84H576.546H583.492V185.441H576.546ZM576.546 263.84V270.785H609.006V263.84V256.895H576.546V263.84ZM609.006 263.84H615.952V185.441H609.006H602.061V263.84H609.006ZM609.006 185.441V192.386H639.266V185.441V178.496H609.006V185.441ZM639.266 185.441H632.32V378H639.266H646.211V185.441H639.266ZM639.266 378V371.055H609.006V378V384.945H639.266V378ZM609.006 378H615.952V291.349H609.006H602.061V378H609.006ZM609.006 291.349V284.403H576.546V291.349V298.294H609.006V291.349ZM576.546 291.349H569.601V378H576.546H583.492V291.349H576.546ZM576.546 378V371.055H546.287V378V384.945H576.546V378ZM546.287 378H553.232V185.441H546.287H539.342V378H546.287ZM724.013 212.95H730.958V206.004H724.013V212.95ZM692.378 212.95H685.433V219.895H692.378V212.95ZM692.378 185.441V178.496H685.433V185.441H692.378ZM785.907 185.441H792.852V178.496H785.907V185.441ZM785.907 212.95V219.895H792.852V212.95H785.907ZM754.272 212.95V206.004H747.327V212.95H754.272ZM754.272 378V384.945H761.217V378H754.272ZM724.013 378H717.068V384.945H724.013V378ZM724.013 212.95V206.004H692.378V212.95V219.895H724.013V212.95ZM692.378 212.95H699.324V185.441H692.378H685.433V212.95H692.378ZM692.378 185.441V192.386H785.907V185.441V178.496H692.378V185.441ZM785.907 185.441H778.962V212.95H785.907H792.852V185.441H785.907ZM785.907 212.95V206.004H754.272V212.95V219.895H785.907V212.95ZM754.272 212.95H747.327V378H754.272H761.217V212.95H754.272ZM754.272 378V371.055H724.013V378V384.945H754.272V378ZM724.013 378H730.958V212.95H724.013H717.068V378H724.013ZM797.806 185.441V178.496H790.861V185.441H797.806ZM828.066 185.441H835.011V178.496H828.066V185.441ZM828.066 263.84H821.12V270.785H828.066V263.84ZM860.526 263.84V270.785H867.471V263.84H860.526ZM860.526 185.441V178.496H853.58V185.441H860.526ZM890.785 185.441H897.73V178.496H890.785V185.441ZM890.785 378V384.945H897.73V378H890.785ZM860.526 378H853.58V384.945H860.526V378ZM860.526 291.349H867.471V284.403H860.526V291.349ZM828.066 291.349V284.403H821.12V291.349H828.066ZM828.066 378V384.945H835.011V378H828.066ZM797.806 378H790.861V384.945H797.806V378ZM797.806 185.441V192.386H828.066V185.441V178.496H797.806V185.441ZM828.066 185.441H821.12V263.84H828.066H835.011V185.441H828.066ZM828.066 263.84V270.785H860.526V263.84V256.895H828.066V263.84ZM860.526 263.84H867.471V185.441H860.526H853.58V263.84H860.526ZM860.526 185.441V192.386H890.785V185.441V178.496H860.526V185.441ZM890.785 185.441H883.84V378H890.785H897.73V185.441H890.785ZM890.785 378V371.055H860.526V378V384.945H890.785V378ZM860.526 378H867.471V291.349H860.526H853.58V378H860.526ZM860.526 291.349V284.403H828.066V291.349V298.294H860.526V291.349ZM828.066 291.349H821.12V378H828.066H835.011V291.349H828.066ZM828.066 378V371.055H797.806V378V384.945H828.066V378ZM797.806 378H804.752V185.441H797.806H790.861V378H797.806ZM910.569 185.441V178.496H903.624V185.441H910.569ZM993.095 185.441H1000.04V178.496H993.095V185.441ZM993.095 212.95V219.895H1000.04V212.95H993.095ZM940.829 212.95V206.004H933.883V212.95H940.829ZM940.829 263.84H933.883V270.785H940.829V263.84ZM982.366 263.84H989.312V256.895H982.366V263.84ZM982.366 291.349V298.294H989.312V291.349H982.366ZM940.829 291.349V284.403H933.883V291.349H940.829ZM940.829 350.492H933.883V357.437H940.829V350.492ZM993.095 350.492H1000.04V343.546H993.095V350.492ZM993.095 378V384.945H1000.04V378H993.095ZM910.569 378H903.624V384.945H910.569V378ZM910.569 185.441V192.386H993.095V185.441V178.496H910.569V185.441ZM993.095 185.441H986.149V212.95H993.095H1000.04V185.441H993.095ZM993.095 212.95V206.004H940.829V212.95V219.895H993.095V212.95ZM940.829 212.95H933.883V263.84H940.829H947.774V212.95H940.829ZM940.829 263.84V270.785H982.366V263.84V256.895H940.829V263.84ZM982.366 263.84H975.421V291.349H982.366H989.312V263.84H982.366ZM982.366 291.349V284.403H940.829V291.349V298.294H982.366V291.349ZM940.829 291.349H933.883V350.492H940.829H947.774V291.349H940.829ZM940.829 350.492V357.437H993.095V350.492V343.546H940.829V350.492ZM993.095 350.492H986.149V378H993.095H1000.04V350.492H993.095ZM993.095 378V371.055H910.569V378V384.945H993.095V378ZM910.569 378H917.515V185.441H910.569H903.624V378H910.569ZM216.863 438.441V431.496H209.918V438.441H216.863ZM296.913 438.441H303.858V431.496H296.913V438.441ZM296.913 465.95V472.895H303.858V465.95H296.913ZM247.123 465.95V459.004H240.177V465.95H247.123ZM247.123 519.591H240.177V526.536H247.123V519.591ZM286.185 519.591H293.13V512.646H286.185V519.591ZM286.185 547.099V554.045H293.13V547.099H286.185ZM247.123 547.099V540.154H240.177V547.099H247.123ZM247.123 631V637.945H254.068V631H247.123ZM216.863 631H209.918V637.945H216.863V631ZM216.863 438.441V445.386H296.913V438.441V431.496H216.863V438.441ZM296.913 438.441H289.968V465.95H296.913H303.858V438.441H296.913ZM296.913 465.95V459.004H247.123V465.95V472.895H296.913V465.95ZM247.123 465.95H240.177V519.591H247.123H254.068V465.95H247.123ZM247.123 519.591V526.536H286.185V519.591V512.646H247.123V519.591ZM286.185 519.591H279.239V547.099H286.185H293.13V519.591H286.185ZM286.185 547.099V540.154H247.123V547.099V554.045H286.185V547.099ZM247.123 547.099H240.177V631H247.123H254.068V547.099H247.123ZM247.123 631V624.055H216.863V631V637.945H247.123V631ZM216.863 631H223.809V438.441H216.863H209.918V631H216.863ZM308.673 438.441V431.496H301.727V438.441H308.673ZM338.932 438.441H345.877V431.496H338.932V438.441ZM338.932 603.492H331.987V610.437H338.932V603.492ZM388.722 603.492H395.667V596.546H388.722V603.492ZM388.722 631V637.945H395.667V631H388.722ZM308.673 631H301.727V637.945H308.673V631ZM308.673 438.441V445.386H338.932V438.441V431.496H308.673V438.441ZM338.932 438.441H331.987V603.492H338.932H345.877V438.441H338.932ZM338.932 603.492V610.437H388.722V603.492V596.546H338.932V603.492ZM388.722 603.492H381.777V631H388.722H395.667V603.492H388.722ZM388.722 631V624.055H308.673V631V637.945H388.722V631ZM308.673 631H315.618V438.441H308.673H301.727V631H308.673ZM424.939 438.441V431.496H419.033L418.084 437.325L424.939 438.441ZM465.926 438.441L472.781 437.325L471.832 431.496H465.926V438.441ZM497.286 631V637.945H505.454L504.141 629.884L497.286 631ZM467.026 631L460.152 631.989L461.009 637.945H467.026V631ZM461.525 592.763L468.399 591.774L454.58 592.763H461.525ZM461.525 593.313V600.259H468.47V593.313H461.525ZM427.139 593.313V586.368H421.134L420.267 592.31L427.139 593.313ZM421.638 631V637.945H427.643L428.51 632.003L421.638 631ZM393.579 631L386.724 629.884L385.411 637.945H393.579V631ZM457.949 567.181V574.126H465.947L464.825 566.207L457.949 567.181ZM444.47 472.001L451.346 471.028L450.501 465.056H444.47V472.001ZM443.919 472.001V465.056H437.871L437.04 471.047L443.919 472.001ZM430.715 567.181L423.836 566.226L422.74 574.126H430.715V567.181ZM424.939 438.441V445.386H465.926V438.441V431.496H424.939V438.441ZM465.926 438.441L459.071 439.558L490.431 632.116L497.286 631L504.141 629.884L472.781 437.325L465.926 438.441ZM497.286 631V624.055H467.026V631V637.945H497.286V631ZM467.026 631L473.901 630.011L468.399 591.774L461.525 592.763L454.65 593.752L460.152 631.989L467.026 631ZM461.525 592.763H454.58V593.313H461.525H468.47V592.763H461.525ZM461.525 593.313V586.368H427.139V593.313V600.259H461.525V593.313ZM427.139 593.313L420.267 592.31L414.765 629.997L421.638 631L428.51 632.003L434.012 594.317L427.139 593.313ZM421.638 631V624.055H393.579V631V637.945H421.638V631ZM393.579 631L400.434 632.116L431.794 439.558L424.939 438.441L418.084 437.325L386.724 629.884L393.579 631ZM457.949 567.181L464.825 566.207L451.346 471.028L444.47 472.001L437.593 472.975L451.072 568.154L457.949 567.181ZM444.47 472.001V465.056H443.919V472.001V478.947H444.47V472.001ZM443.919 472.001L437.04 471.047L423.836 566.226L430.715 567.181L437.595 568.135L450.799 472.956L443.919 472.001ZM430.715 567.181V574.126H457.949V567.181V560.235H430.715V567.181ZM518.031 621.372L512.902 626.055L512.928 626.083L512.954 626.111L518.031 621.372ZM518.031 448.344L523.108 453.083L523.134 453.055L523.16 453.027L518.031 448.344ZM585.151 448.344L580.023 453.027L580.048 453.055L580.074 453.083L585.151 448.344ZM596.705 500.61V507.555H603.65V500.61H596.705ZM568.096 500.61H561.151V507.555H568.096V500.61ZM568.096 549.85H575.041V542.905H568.096V549.85ZM552.967 549.85H546.021V556.795H552.967V549.85ZM552.967 522.342V515.397H546.021V522.342H552.967ZM596.705 522.342H603.65V515.397H596.705V522.342ZM585.151 621.372L590.229 626.111L590.255 626.083L590.28 626.055L585.151 621.372ZM551.591 633.751V626.806C538.237 626.806 529.133 623.088 523.108 616.633L518.031 621.372L512.954 626.111C522.334 636.161 535.603 640.696 551.591 640.696V633.751ZM518.031 621.372L523.16 616.689C516.995 609.937 513.423 599.83 513.423 585.336H506.477H499.532C499.532 602.018 503.662 615.935 512.902 626.055L518.031 621.372ZM506.477 585.336H513.423V484.105H506.477H499.532V585.336H506.477ZM506.477 484.105H513.423C513.423 469.6 516.999 459.628 523.108 453.083L518.031 448.344L512.954 443.605C503.658 453.565 499.532 467.434 499.532 484.105H506.477ZM518.031 448.344L523.16 453.027C529.195 446.417 538.282 442.636 551.591 442.636V435.69V428.745C535.558 428.745 522.271 433.4 512.902 443.661L518.031 448.344ZM551.591 435.69V442.636C564.9 442.636 573.987 446.417 580.023 453.027L585.151 448.344L590.28 443.661C580.911 433.4 567.625 428.745 551.591 428.745V435.69ZM585.151 448.344L580.074 453.083C586.183 459.628 589.76 469.6 589.76 484.105H596.705H603.65C603.65 467.434 599.525 453.565 590.229 443.605L585.151 448.344ZM596.705 484.105H589.76V500.61H596.705H603.65V484.105H596.705ZM596.705 500.61V493.665H568.096V500.61V507.555H596.705V500.61ZM568.096 500.61H575.041V482.18H568.096H561.151V500.61H568.096ZM568.096 482.18H575.041C575.041 475.07 573.6 468.447 569.531 463.521C565.251 458.34 559.1 456.254 552.416 456.254V463.199V470.144C556.186 470.144 557.875 471.221 558.822 472.367C559.979 473.768 561.151 476.635 561.151 482.18H568.096ZM552.416 463.199V456.254C545.733 456.254 539.582 458.34 535.302 463.521C531.232 468.447 529.791 475.07 529.791 482.18H536.737H543.682C543.682 476.635 544.854 473.768 546.011 472.367C546.958 471.221 548.647 470.144 552.416 470.144V463.199ZM536.737 482.18H529.791V587.537H536.737H543.682V482.18H536.737ZM536.737 587.537H529.791C529.791 594.573 531.24 601.144 535.334 606.028C539.624 611.146 545.766 613.188 552.416 613.188V606.242V599.297C548.614 599.297 546.915 598.221 545.979 597.104C544.846 595.753 543.682 592.971 543.682 587.537H536.737ZM552.416 606.242V613.188C559.067 613.188 565.209 611.146 569.499 606.028C573.592 601.144 575.041 594.573 575.041 587.537H568.096H561.151C561.151 592.971 559.987 595.753 558.854 597.104C557.917 598.221 556.219 599.297 552.416 599.297V606.242ZM568.096 587.537H575.041V549.85H568.096H561.151V587.537H568.096ZM568.096 549.85V542.905H552.967V549.85V556.795H568.096V549.85ZM552.967 549.85H559.912V522.342H552.967H546.021V549.85H552.967ZM552.967 522.342V529.287H596.705V522.342V515.397H552.967V522.342ZM596.705 522.342H589.76V585.336H596.705H603.65V522.342H596.705ZM596.705 585.336H589.76C589.76 599.83 586.187 609.937 580.023 616.689L585.151 621.372L590.28 626.055C599.52 615.935 603.65 602.018 603.65 585.336H596.705ZM585.151 621.372L580.074 616.633C574.049 623.088 564.945 626.806 551.591 626.806V633.751V640.696C567.579 640.696 580.849 636.161 590.229 626.111L585.151 621.372ZM664.04 621.372L658.906 626.05L658.935 626.08L658.963 626.111L664.04 621.372ZM664.04 448.069L658.963 443.33L658.935 443.361L658.906 443.392L664.04 448.069ZM730.336 448.069L725.202 452.747L725.23 452.777L725.258 452.808L730.336 448.069ZM741.889 503.361V510.306H748.834V503.361H741.889ZM713.28 503.361H706.335V510.306H713.28V503.361ZM713.28 559.203V552.258H706.335V559.203H713.28ZM741.889 559.203H748.834V552.258H741.889V559.203ZM730.336 621.372L725.258 616.633L725.23 616.664L725.202 616.695L730.336 621.372ZM697.326 633.751V626.806C684.185 626.806 675.159 623.106 669.118 616.633L664.04 621.372L658.963 626.111C668.327 636.144 681.49 640.696 697.326 640.696V633.751ZM664.04 621.372L669.174 616.695C663.175 610.11 659.707 600.353 659.707 586.436H652.762H645.817C645.817 602.595 649.868 616.129 658.906 626.05L664.04 621.372ZM652.762 586.436H659.707V483.005H652.762H645.817V586.436H652.762ZM652.762 483.005H659.707C659.707 469.088 663.175 459.332 669.174 452.747L664.04 448.069L658.906 443.392C649.868 453.312 645.817 466.846 645.817 483.005H652.762ZM664.04 448.069L669.118 452.808C675.159 446.336 684.185 442.636 697.326 442.636V435.69V428.745C681.49 428.745 668.327 433.298 658.963 443.33L664.04 448.069ZM697.326 435.69V442.636C710.475 442.636 719.363 446.338 725.202 452.747L730.336 448.069L735.469 443.392C726.27 433.295 713.152 428.745 697.326 428.745V435.69ZM730.336 448.069L725.258 452.808C731.407 459.396 734.944 469.128 734.944 483.005H741.889H748.834C748.834 466.805 744.669 453.248 735.413 443.33L730.336 448.069ZM741.889 483.005H734.944V503.361H741.889H748.834V483.005H741.889ZM741.889 503.361V496.416H713.28V503.361V510.306H741.889V503.361ZM713.28 503.361H720.226V481.079H713.28H706.335V503.361H713.28ZM713.28 481.079H720.226C720.226 474.305 718.817 467.93 714.8 463.183C710.595 458.213 704.597 456.254 698.151 456.254V463.199V470.144C701.791 470.144 703.358 471.165 704.196 472.155C705.222 473.368 706.335 475.933 706.335 481.079H713.28ZM698.151 463.199V456.254C691.705 456.254 685.707 458.213 681.502 463.183C677.484 467.93 676.076 474.305 676.076 481.079H683.021H689.966C689.966 475.933 691.079 473.368 692.105 472.155C692.943 471.165 694.51 470.144 698.151 470.144V463.199ZM683.021 481.079H676.076V588.637H683.021H689.966V481.079H683.021ZM683.021 588.637H676.076C676.076 595.34 677.494 601.664 681.536 606.368C685.752 611.273 691.739 613.188 698.151 613.188V606.242V599.297C694.476 599.297 692.898 598.277 692.071 597.314C691.07 596.15 689.966 593.671 689.966 588.637H683.021ZM698.151 606.242V613.188C704.562 613.188 710.55 611.273 714.765 606.368C718.808 601.664 720.226 595.34 720.226 588.637H713.28H706.335C706.335 593.671 705.231 596.15 704.231 597.314C703.403 598.277 701.826 599.297 698.151 599.297V606.242ZM713.28 588.637H720.226V559.203H713.28H706.335V588.637H713.28ZM713.28 559.203V566.148H741.889V559.203V552.258H713.28V559.203ZM741.889 559.203H734.944V586.436H741.889H748.834V559.203H741.889ZM741.889 586.436H734.944C734.944 600.313 731.407 610.046 725.258 616.633L730.336 621.372L735.413 626.111C744.669 616.194 748.834 602.636 748.834 586.436H741.889ZM730.336 621.372L725.202 616.695C719.363 623.103 710.475 626.806 697.326 626.806V633.751V640.696C713.152 640.696 726.27 636.146 735.469 626.05L730.336 621.372ZM780.9 465.95H787.845V459.004H780.9V465.95ZM749.265 465.95H742.32V472.895H749.265V465.95ZM749.265 438.441V431.496H742.32V438.441H749.265ZM842.793 438.441H849.739V431.496H842.793V438.441ZM842.793 465.95V472.895H849.739V465.95H842.793ZM811.159 465.95V459.004H804.214V465.95H811.159ZM811.159 631V637.945H818.104V631H811.159ZM780.9 631H773.954V637.945H780.9V631ZM780.9 465.95V459.004H749.265V465.95V472.895H780.9V465.95ZM749.265 465.95H756.21V438.441H749.265H742.32V465.95H749.265ZM749.265 438.441V445.386H842.793V438.441V431.496H749.265V438.441ZM842.793 438.441H835.848V465.95H842.793H849.739V438.441H842.793ZM842.793 465.95V459.004H811.159V465.95V472.895H842.793V465.95ZM811.159 465.95H804.214V631H811.159H818.104V465.95H811.159ZM811.159 631V624.055H780.9V631V637.945H811.159V631ZM780.9 631H787.845V465.95H780.9H773.954V631H780.9ZM854.693 438.441V431.496H847.748V438.441H854.693ZM934.742 438.441H941.688V431.496H934.742V438.441ZM934.742 465.95V472.895H941.688V465.95H934.742ZM884.952 465.95V459.004H878.007V465.95H884.952ZM884.952 519.591H878.007V526.536H884.952V519.591ZM924.014 519.591H930.959V512.646H924.014V519.591ZM924.014 547.099V554.045H930.959V547.099H924.014ZM884.952 547.099V540.154H878.007V547.099H884.952ZM884.952 631V637.945H891.897V631H884.952ZM854.693 631H847.748V637.945H854.693V631ZM854.693 438.441V445.386H934.742V438.441V431.496H854.693V438.441ZM934.742 438.441H927.797V465.95H934.742H941.688V438.441H934.742ZM934.742 465.95V459.004H884.952V465.95V472.895H934.742V465.95ZM884.952 465.95H878.007V519.591H884.952H891.897V465.95H884.952ZM884.952 519.591V526.536H924.014V519.591V512.646H884.952V519.591ZM924.014 519.591H917.069V547.099H924.014H930.959V519.591H924.014ZM924.014 547.099V540.154H884.952V547.099V554.045H924.014V547.099ZM884.952 547.099H878.007V631H884.952H891.897V547.099H884.952ZM884.952 631V624.055H854.693V631V637.945H884.952V631ZM854.693 631H861.638V438.441H854.693H847.748V631H854.693Z" fill="black" mask="url(#path-4-outside-2_1_6980)"/>
<path d="M643.426 61.4953H642.064V85.0365H625.16V26.4238L642.064 0V54.6892C645.428 50.5655 656.765 34.9114 656.765 34.9114H677.634L657.846 55.8503L678.315 85.0765H656.965L643.426 61.4953ZM596.319 57.6519L603.249 35.0716H619.992L600.365 84.8764C594.516 99.8498 586.144 109.979 573.647 109.979C568.84 109.979 564.794 108.738 562.671 107.537L569.401 97.1274C570.402 97.2475 571.443 97.2875 572.485 97.2875C578.253 97.2875 582.579 91.6825 585.383 85.0365L564.794 35.0716H583.741L591.151 57.3716C592.593 61.6154 593.635 69.7027 593.635 69.7027C593.635 69.7027 594.957 61.8957 596.319 57.6519ZM545.246 56.4908C545.246 49.965 542.362 46.8822 536.874 46.8822C534.191 46.8822 531.387 47.6429 529.464 48.8039V85.0365H512.56V35.552L529.103 34.1908L528.703 42.278H529.264C532.829 37.4737 538.877 33.8304 546.087 33.8304C554.74 33.8304 562.23 39.1953 562.23 51.8867V85.0365H545.246V56.4908ZM464.171 82.4742L465.693 70.9438C470.981 73.5462 476.949 74.7873 481.956 74.7873C485.602 74.7873 488.005 73.5462 488.005 71.3442C488.005 65.0185 465.213 66.5399 465.213 50.005C465.213 39.4355 474.906 33.8705 487.044 33.8705C493.092 33.8705 499.341 35.512 503.387 36.9533L501.745 48.2834C497.499 46.642 491.73 45.1206 486.924 45.1206C483.959 45.1206 481.556 46.1615 481.556 48.0833C481.556 54.3289 504.829 53.0878 504.829 69.2223C504.829 79.9519 495.295 86.1175 482.237 86.1175C475.027 86.1175 469.178 84.8764 464.171 82.4742Z" fill="white"/>
</svg>
